<svg width="956" height="883" viewBox="0 0 956 883" fill="none" xmlns="http://www.w3.org/2000/svg">
<mask id="path-1-outside-1_378_3251" maskUnits="userSpaceOnUse" x="0" y="0" width="956" height="883" fill="black">
<rect fill="white" width="956" height="883"/>
<path d="M859.301 807.114C857.155 834.152 834.587 855 807.464 855H159.99C133.304 855 110.95 834.799 108.256 808.25L51 244H53C39.1929 244 28 232.807 28 219V53C28 39.1929 39.1929 28 53 28H903C916.807 28 928 39.1929 928 53V219C928 232.807 916.807 244 903 244H904L859.301 807.114Z"/>
</mask>
<path d="M859.301 807.114C857.155 834.152 834.587 855 807.464 855H159.99C133.304 855 110.95 834.799 108.256 808.25L51 244H53C39.1929 244 28 232.807 28 219V53C28 39.1929 39.1929 28 53 28H903C916.807 28 928 39.1929 928 53V219C928 232.807 916.807 244 903 244H904L859.301 807.114Z" fill="#965A28"/>
<path d="M859.301 807.114L831.389 804.899L831.389 804.899L859.301 807.114ZM159.99 855L159.99 883H159.99V855ZM108.256 808.25L80.3989 811.077L80.3989 811.077L108.256 808.25ZM51 244V216H20.015L23.143 246.827L51 244ZM53 28L53 0L53 28ZM903 28L903 0H903V28ZM904 244L931.912 246.216L934.311 216H904V244ZM859.301 807.114L831.389 804.899C830.398 817.378 819.982 827 807.464 827V855V883C849.192 883 883.911 850.927 887.213 809.33L859.301 807.114ZM807.464 855V827H159.99V855V883H807.464V855ZM159.99 855L159.99 827C147.674 827 137.356 817.676 136.113 805.423L108.256 808.25L80.3989 811.077C84.5439 851.922 118.935 883 159.99 883L159.99 855ZM108.256 808.25L136.113 805.423L78.857 241.173L51 244L23.143 246.827L80.3989 811.077L108.256 808.25ZM51 244V272H53V244V216H51V244ZM53 244L53 216C54.6569 216 56 217.343 56 219H28H0C0 248.271 23.7289 272 53 272L53 244ZM28 219H56V53H28H0V219H28ZM28 53H56C56 54.6569 54.6569 56 53 56L53 28L53 0C23.7289 2.1341e-07 0 23.7289 0 53H28ZM53 28V56H903V28V0H53V28ZM903 28L903 56C901.343 56 900 54.6569 900 53H928H956C956 23.7289 932.271 1.36583e-05 903 0L903 28ZM928 53H900V219H928H956V53H928ZM928 219H900C900 217.343 901.343 216 903 216L903 244L903 272C932.271 272 956 248.271 956 219H928ZM903 244V272H904V244V216H903V244ZM904 244L876.088 241.784L831.389 804.899L859.301 807.114L887.213 809.33L931.912 246.216L904 244Z" fill="#785028" mask="url(#path-1-outside-1_378_3251)"/>
<line x1="36" y1="258" x2="920" y2="258" stroke="#785028" stroke-width="28"/>
</svg>
